<?xml version="1.0" encoding="utf-8"?>
<!-- Generator: Adobe Illustrator 22.1.0, SVG Export Plug-In . SVG Version: 6.00 Build 0)  -->
<svg version="1.1" id="Layer_1" xmlns="http://www.w3.org/2000/svg" xmlns:xlink="http://www.w3.org/1999/xlink" x="0px" y="0px"
	 viewBox="0 0 289.4 69.1" style="enable-background:new 0 0 289.4 69.1;" xml:space="preserve">
<style type="text/css">
	.st0{fill:#001A57;}
</style>
<title>Muser Logo</title>
<path class="st0" d="M28.9,68.2L12.4,14.7H12c0.6,10.9,0.9,18.1,0.9,21.8v31.7H0V0h19.7l16.1,52.1h0.3L53.2,0h19.7v68.2H59.4V35.9
	c0-1.5,0-3.3,0.1-5.3s0.3-7.3,0.6-15.8h-0.4L42.1,68.2H28.9z"/>
<path class="st0" d="M125.8,68.2l-1.9-6.7h-0.8c-1.6,2.5-3.8,4.4-6.5,5.6c-3,1.4-6.3,2.1-9.6,2c-6.1,0-10.7-1.6-13.8-4.9
	c-3.1-3.3-4.7-8-4.7-14.2V16h14.2v30.5c0,3.8,0.7,6.6,2,8.5c1.3,1.9,3.5,2.8,6.4,2.8c4,0,6.9-1.3,8.6-4c1.8-2.7,2.6-7.1,2.7-13.2V16
	h14.2v52.2H125.8z"/>
<path class="st0" d="M188,52.7c0,5.3-1.9,9.4-5.6,12.2c-3.7,2.8-9.3,4.2-16.7,4.2c-3.3,0-6.5-0.2-9.7-0.8c-2.6-0.5-5.1-1.2-7.5-2.3
	V54.3c2.9,1.3,5.9,2.4,8.9,3.1c2.9,0.8,5.8,1.2,8.8,1.2c5.2,0,7.7-1.5,7.7-4.5c0-1-0.3-2-1-2.7c-1.1-1-2.3-1.8-3.5-2.4
	c-1.7-0.9-3.9-1.9-6.7-3.1c-3.1-1.2-6.1-2.8-8.8-4.7c-1.8-1.3-3.2-3-4.1-4.9c-0.9-2.2-1.4-4.5-1.3-6.8c-0.2-4.3,1.9-8.3,5.4-10.7
	c3.6-2.5,8.7-3.8,15.3-3.8c6.3,0,12.6,1.4,18.3,4.1l-4.3,10.3c-2.4-1-4.8-2-7.3-2.8c-2.2-0.7-4.6-1.1-6.9-1.1
	c-4.2,0-6.3,1.1-6.3,3.4c0.1,1.4,0.8,2.6,2,3.3c2.8,1.6,5.8,3,8.9,4.2c3.2,1.2,6.2,2.7,8.9,4.6c1.8,1.3,3.2,3,4.2,4.9
	C187.6,48.1,188.1,50.4,188,52.7z"/>
<path class="st0" d="M222.7,69.1c-8.4,0-14.9-2.3-19.7-7c-4.7-4.7-7.1-11.2-7.1-19.7c0-8.7,2.2-15.5,6.6-20.3s10.4-7.2,18.1-7.1
	c7.3,0,13.1,2.1,17.2,6.3s6.2,10,6.2,17.4v6.9h-33.6c0.1,4,1.3,7.2,3.6,9.5c2.2,2.3,5.4,3.4,9.4,3.4c3,0,6-0.3,8.9-1
	c3-0.7,5.9-1.8,8.7-3.1v11c-2.5,1.3-5.2,2.2-8,2.8C229.6,68.8,226.2,69.1,222.7,69.1z M220.7,25.2c-2.7-0.2-5.3,0.9-7.1,2.8
	c-1.7,1.9-2.7,4.6-2.9,8.1h20c-0.1-3.5-1-6.2-2.8-8.1C226,26.1,223.4,25,220.7,25.2z"/>
<path class="st0" d="M284.6,15.1c1.6,0,3.2,0.1,4.8,0.4l-1.1,13.3c-1.4-0.3-2.8-0.5-4.2-0.5c-4.5,0-8.1,1.2-10.6,3.5
	s-3.8,5.6-3.8,9.8v26.5h-14.2V16h10.8l2.1,8.8h0.7c1.6-2.9,3.8-5.3,6.5-7.1C278.3,16,281.4,15,284.6,15.1z"/>
</svg>
